<svg xmlns="http://www.w3.org/2000/svg" xmlns:xlink="http://www.w3.org/1999/xlink" width="400" zoomAndPan="magnify" viewBox="0 0 300 299.999988" height="400" preserveAspectRatio="xMidYMid meet" version="1.0"><path fill="#000000" d="M 139.671875 25.851562 C 125.195312 26.878906 107.765625 31.882812 92.964844 39.261719 C 81.527344 44.964844 77.164062 47.929688 65.945312 57.621094 C 56.128906 66.097656 49.53125 73.921875 42.953125 84.878906 C 18.410156 125.769531 17.167969 172.945312 39.574219 213.222656 C 52.441406 236.355469 69.742188 252.984375 93.75 265.300781 C 114.917969 276.15625 139.1875 279.773438 166.664062 276.171875 C 191.851562 272.871094 217.175781 260.550781 234.925781 242.964844 C 248.601562 229.410156 257.867188 215.644531 266.222656 196.464844 C 272.128906 182.898438 274.507812 166.832031 273.628906 146.40625 C 272.78125 126.710938 270.171875 116.445312 261.339844 98.054688 C 242.832031 59.519531 210.105469 34.140625 170.238281 27.410156 C 161.835938 25.992188 147.8125 25.277344 139.671875 25.851562 M 133.03125 56.671875 C 110.664062 60.105469 83.097656 77.816406 69.5 97.488281 C 57.523438 114.808594 52.253906 134.050781 53.269531 156.738281 C 54.160156 176.675781 58.136719 188.644531 69.722656 206.257812 C 78.109375 219.011719 93.453125 232.570312 107.625 239.753906 C 118.574219 245.300781 134.449219 248.800781 148.652344 248.800781 C 174.300781 248.800781 198.101562 238.703125 216.324219 220.09375 C 237.089844 198.875 246.683594 173.191406 244.339844 145.058594 C 243.039062 129.414062 239.679688 118.855469 231.476562 104.640625 C 224.855469 93.164062 213.820312 80.6875 204.085938 73.675781 C 197.246094 68.746094 183.914062 62.210938 174.699219 59.265625 C 166.5625 56.667969 164.453125 56.371094 152.246094 56.09375 C 144.835938 55.925781 136.1875 56.183594 133.03125 56.671875 M 136.585938 78.167969 C 110.097656 83.730469 88.363281 101.414062 79.203125 124.851562 C 72.328125 142.445312 72.792969 166.441406 80.324219 182.894531 C 85.28125 193.722656 94.742188 205.773438 103.292969 212.148438 C 108.5625 216.078125 118.511719 221.054688 126.601562 223.804688 C 147.199219 230.8125 173.765625 226.238281 193.089844 212.359375 C 198.433594 208.519531 208.988281 196.726562 210.660156 192.734375 C 211.292969 191.214844 212.671875 188.878906 213.71875 187.546875 C 221.46875 177.695312 224.851562 154.980469 221.332031 136.402344 C 218.125 119.464844 207.941406 103.476562 193.074219 92.035156 C 187.199219 87.515625 175.921875 81.667969 168.863281 79.484375 C 163.085938 77.699219 142.769531 76.867188 136.585938 78.167969 M 140.960938 106.941406 C 134.179688 107.941406 127.796875 110.582031 120.425781 115.4375 C 112.113281 120.914062 106.054688 129.300781 104.078125 138.070312 C 102.238281 146.226562 102.082031 158.699219 103.742188 164.695312 C 108.738281 182.746094 125.277344 197.378906 142.507812 198.996094 C 172.363281 201.792969 194.910156 181.871094 194.910156 152.691406 C 194.910156 142.199219 193.214844 135.269531 188.960938 128.378906 C 181.164062 115.746094 170.292969 108.808594 155.363281 106.9375 C 151.203125 106.414062 147.386719 106.039062 146.878906 106.097656 C 146.371094 106.15625 143.710938 106.539062 140.960938 106.941406 M 143.261719 130.21875 C 135.699219 132.164062 131.15625 135.671875 127.90625 142.085938 C 123.320312 151.136719 125.765625 164.9375 133.039062 171.058594 C 139.164062 176.210938 151.320312 177.347656 158.640625 173.449219 C 166.914062 169.050781 170.78125 163.097656 171.375 153.847656 C 171.738281 148.132812 171.5 146.757812 169.378906 142.425781 C 164.441406 132.328125 154.015625 127.453125 143.261719 130.21875 M 255.539062 250.742188 C 252.902344 252.195312 250.640625 255.269531 250.617188 257.4375 C 250.59375 259.925781 253.828125 263.976562 256.71875 265.078125 C 263.910156 267.8125 269.582031 256.84375 263.625 251.722656 C 261.074219 249.523438 258.351562 249.195312 255.539062 250.742188 " fill-opacity="1" fill-rule="evenodd"/></svg>